<mxfile host="app.diagrams.net" modified="2022-10-05T03:02:30.117Z" agent="5.0 (Windows NT 10.0; Win64; x64) AppleWebKit/537.36 (KHTML, like Gecko) Chrome/92.0.4515.107 Safari/537.36" etag="CPseETC8mQT0NW3N0_L5" version="18.0.1" type="github">
  <diagram id="N6pequ-ZTPupdAcdfw29" name="Page-1">
    <mxGraphModel dx="1248" dy="626" grid="1" gridSize="10" guides="1" tooltips="1" connect="1" arrows="1" fold="1" page="1" pageScale="1" pageWidth="827" pageHeight="1169" math="0" shadow="0">
      <root>
        <mxCell id="0" />
        <mxCell id="1" parent="0" />
        <mxCell id="IbCEWpkTwuIwbuF2coYA-1" value="" style="rounded=1;whiteSpace=wrap;html=1;arcSize=3;strokeWidth=1;glass=0;shadow=0;sketch=1;fillColor=#f9f7ed;strokeColor=#36393d;" vertex="1" parent="1">
          <mxGeometry x="170" y="180" width="360" height="100" as="geometry" />
        </mxCell>
        <mxCell id="IbCEWpkTwuIwbuF2coYA-2" value="长按识别左侧二维码：" style="text;html=1;strokeColor=none;fillColor=none;align=center;verticalAlign=middle;whiteSpace=wrap;rounded=0;shadow=0;glass=0;sketch=1;" vertex="1" parent="1">
          <mxGeometry x="285" y="196" width="125" height="20" as="geometry" />
        </mxCell>
        <mxCell id="IbCEWpkTwuIwbuF2coYA-3" value="回复「&lt;font color=&quot;#ff0000&quot;&gt;&lt;b&gt;加群&lt;/b&gt;&lt;/font&gt;」，带你进入高手如云交流社群" style="text;html=1;strokeColor=none;fillColor=none;align=center;verticalAlign=middle;whiteSpace=wrap;rounded=0;shadow=0;glass=0;sketch=1;" vertex="1" parent="1">
          <mxGeometry x="280" y="220" width="240" height="20" as="geometry" />
        </mxCell>
        <mxCell id="IbCEWpkTwuIwbuF2coYA-4" value="回复「&lt;font color=&quot;#ff0000&quot;&gt;&lt;b&gt;1024&lt;/b&gt;&lt;/font&gt;」，送你一套 10T 学习大礼包" style="text;html=1;strokeColor=none;fillColor=none;align=center;verticalAlign=middle;whiteSpace=wrap;rounded=0;shadow=0;glass=0;sketch=1;" vertex="1" parent="1">
          <mxGeometry x="279" y="240" width="240" height="20" as="geometry" />
        </mxCell>
        <mxCell id="IbCEWpkTwuIwbuF2coYA-5" value="" style="shape=image;verticalLabelPosition=bottom;labelBackgroundColor=#ffffff;verticalAlign=top;aspect=fixed;imageAspect=0;image=data:image/jpeg,/9j/4AAQSkZJRgABAQAAAQABAAD/2wBDAAMCAgMCAgMDAwMEAwMEBQgFBQQEBQoHBwYIDAoMDAsKCwsNDhIQDQ4RDgsLEBYQERMUFRUVDA8XGBYUGBIUFRT/2wBDAQMEBAUEBQkFBQkUDQsNFBQUFBQUFBQUFBQUFBQUFBQUFBQUFBQUFBQUFBQUFBQUFBQUFBQUFBQUFBQUFBQUFBT/wAARCAFYAVgDASIAAhEBAxEB/8QAHwAAAQUBAQEBAQEAAAAAAAAAAAECAwQFBgcICQoL/8QAtRAAAgEDAwIEAwUFBAQAAAF9AQIDAAQRBRIhMUEGE1FhByJxFDKBkaEII0KxwRVS0fAkM2JyggkKFhcYGRolJicoKSo0NTY3ODk6Q0RFRkdISUpTVFVWV1hZWmNkZWZnaGlqc3R1dnd4eXqDhIWGh4iJipKTlJWWl5iZmqKjpKWmp6ipqrKztLW2t7i5usLDxMXGx8jJytLT1NXW19jZ2uHi4+Tl5ufo6erx8vP09fb3+Pn6/8QAHwEAAwEBAQEBAQEBAQAAAAAAAAECAwQFBgcICQoL/8QAtREAAgECBAQDBAcFBAQAAQJ3AAECAxEEBSExBhJBUQdhcRMiMoEIFEKRobHBCSMzUvAVYnLRChYkNOEl8RcYGRomJygpKjU2Nzg5OkNERUZHSElKU1RVVldYWVpjZGVmZ2hpanN0dXZ3eHl6goOEhYaHiImKkpOUlZaXmJmaoqOkpaanqKmqsrO0tba3uLm6wsPExcbHyMnK0tPU1dbX2Nna4uPk5ebn6Onq8vP09fb3+Pn6/9oADAMBAAIRAxEAPwD9U6KKKACiiigAooooAKKKKACiiigAooooAKKKKACiiigAooooAKKKKACiiigAooooAKKKKACiiigAooooAKKKKACiiigAooooAKKKKACiiigAooooAKKKKACiiigBpbBpQSQDigjNfysE5NAH9U9FfysUUAf1T0V/KxRQB/VPQc1/KxQOtAH9UxbFKCSAcUYzX8rBOTQB/VRRRRQAUUUUAITgUgYk4xSkZr+VgmgD+qYsQcYpQciv5WAa/qnAxQAE4FIGJOMUpGa/lYJoA/qnor+ViigD+qcnApNxJxj8aUjNfys5oA/qmBzS0g6UtABRRRQA0tg0oJIBxQRmv5WCcmgD+qcnApAxJxilIzX8rBNAH9U9FfysUUAf1T0V/KxRQB/VPRX8rFFAH9VFFFFABRRRQAUUUUAJ3r+Viv6p+9fysUAf1Tk4GTQDmgjIr+VnPHSgD+qeiv5WM+1GfagD+qev5V/Sv6qK/lX9KAP6px2r+Viv6ps4xX8rJBFABRRijFABRQATRQB/VOTgUbh61/KyOvSv6owO/P0oAfmv5WOlPBAr+qRenWgAJwK/lZIPSgMAelLuzQA3FBGDX9UvOc88dq/laPX/AAoA/qn6V/Kz6UA89K/qjA570APzgUA5GRX8rXbHHNf1Sg8daAFr+Vfriv6qK/lYFACUV/VMD+FLn3FAC1/Kv6V/VRX8q/pQB/VPkAc0A5FIVyRz2r+VrI9KAP6p6K/lYz7UAjPSgD+qbriv5WK/qnAr+VigD+qiiiigAooooAKKKKAE71/KxX9U/ev5WKAP6qK/lX7V/VRX8q/agAooooA/qor+Vf0r+qiv5V/SgD+qfGRQABQOlLQAh4HSkBycYpSM1/KwTQB/VKxwa/lbI560gr+qfpQAEA0hGOlOpD0oAQDNKOK/lYPWigAAyadjAzmmg4r+qcDFAH8rQ9c009a/qnIzX8rBOaAP6pzwOlfyt9q/qkIyMGjGBQB/KySRSZoPWigD+qcnAr+VrHGc1/VKRkYNAGKAP5WscZzTTwetf1TkZr+VgnNAH9VFfyr+lf1UV/Kv6UAf1TjtX8rFf1TjtX8rFABQOtFA60Af1TjtX8rFf1TjtX8rFAH9VFFFFABRRRQAUUUUAJ3r+Viv6pycV/KwQRQB/VRRX8rH4UfhQB/VPRX8rH4UfhQB/VMTgV/KzjGKAcHpSk5/CgD+qUdq/lYr+qcV/KxQAda/qnzQ3TrX8rZIOKAP6pOuK/lYr+qYHFfys4oA/qor+Vfriv6p81/K0BQA3Ff1T9aaecV/K2Tz0oATrX9U+aG6da/lbJBxQB/VJuHrQDkUzHPWv5XD16UAJ1r+qfNDdOtfytkg0Af1SdcV/KxX9UwOK/lZIIoAOtf1T560N061/K0SDQA3GTQRg1/VLjnrX8rROTQB/VRX8rHpX9UxOK/lZ6UAf1TDpS1/KwfpR+FAH9U9FfysfhR+FAH9UxOK/lYIxTs8YxTTyelAH9VFFFFABRRRQAUUUUAIRmgAClooAQ8DpSA5OMUpGa/lYJoA/qnx7CjHsK/lYooA/qnPA6U3OTjH404jNfys5oA/qmFfysV/VOO1fysUAf1TnmkIwK/lZooAf6mv6oxyOn51/Kzk+tBOTQAoHPWv6pBzmnda/lYJoAf6mv6oxyOn51/Kzk+tBOTQB/VOenrTQe2KcRmv5Wc0AL2JyK/qlHI6fnRjIoAwMCgAIzSEYp1IelACYz1pQMdq/lYPWigD+qc80hGK/lZoHWgD+qcV/KxX9U47V/KxQB/VOeaAMV/KxRQB/VMTg4xSjkdK/lYBr+qcDFAAeB0pAcnGKUjNfysE0Af1T49hRj2FfysUUAf1UUUUUAFFFFABRRRQAnev5WK/qnJxX8rBBFAH9U5OBk0A5oIyK/lazxjFAH9UpOK/lYIxTh6Ypp60AAGa/qnzmv5WB1pxOOMUAJ61/VPX8rHWv6pgc0AfysUdaMUoGDzQAmKCMGv6pcE4Oe1fytE5NABQOtFLgg0Af1TZAHNAORTTyR9K/lbPXpQAgGTRjBpRwen51/VJ3780AOz0r+VjpTwcV/VGOnWgD+Vmv6p+9fysYr+qbdzQA6ikpaAEJwK/lZxQDz0pSfWgD+qUdKWv5WevQZpPwoAQDJowfSv6pyCRjOK/laz2oAQCv6pgc00+vp2pw6etAH8rHWv6p80N061/K2SDQB/VJuHrQDkUwjvz9K/lcPXpQB/VPRRRQAUUUUAFFFFADWPPNC9Bx+dKRmv5WCcmgD+qckgdK/lawBTelf1T4oAQDPrX8rJOa/qn6Yr+VigAHX/Gv6pV64/nX8rQODQTmgD+qVuuMU4dPSv5WAa/qnAxQAjdOn5V/K2R0Pv0poODRkk0Af1TjtX8rFf1TjtX8rFAAOv+Nf1SjPI/Wv5WgcGjNAD/AFNf1RjkdPzr+VnJ9aDzQB/VMeB0/Kv5XO3amdKXJJoAXOOhxSfjX9Uw6UtADT06V/K4RxTOlf1T460AA6UV/KwetFAH9UzdOn5V/K2Rkf0FNBwaXJJoAcAK/qjHTpS46V/Kx1oA/qor+VgV/VPX8rHpQA4AGv6pF6dKMdK/lY60Af1TkZo20tFADW4PNC9Bx+dKRmv5WCcmgD+qiiiigAooooAKKKKAEJA60A5FNYc59ulfytnr0oA/qmJwMmjORQeR1r+Vrt24oAbjJoIwa/qlxz1r+VonJoAOtf1T96G6da/laJz2oA/qmor+VnGe1J+FACAZNf1T5HXtSHkEZpMYoAcSK/lYIxTvYCkPJ6UAKOtfV3wF/wCCafxn+PegWuv2enWPhfQbuPzba+8RTPB9oQhWV0jRGcowbIbbg+uOT++hbOQDz718zfFz4u6vqPiK90rSr2XT9Os5GgZrdtskzjhiWHIAOQAPT8vKzHMqOW0fa1fRJdT1cty6tmdb2NH1beyR9Lk8V+OP/DlD4pHn/hOvB4z/ALV1/wDGa+rj4g1nqdd1g/8AcSn/APi6Q+INY7a7rP8A4Mp//i6+T/1xw/8Az6f4H13+peK/5+x/E+Uh/wAET/ikOf8AhOvB5x/tXX/xmv2PGfX8q+HP+Eh1n/oPax/4M5//AIumnxFrI/5j2sf+DOf/AOLo/wBccP8A8+n+A/8AUvFf8/Y/ifK3/DlH4pA/8jz4Px/vXX/xmv2QBwAM18LHxHrP/Qe1j/wZz/8AxdNPiTWv+g9rP/gzn/8Ai6X+uOH/AOfT/AP9S8V/z9j+J91NjaeRj3r8C/j3/wAE0vjP8BvD114gu9PsfFOg2aebdX3h6Z5/IQKzM7xuiuFULy23Az1xmv0HPiXW88a/rP8A4M5//i69L+Dvxl1nTvEljo+r3suo6beyCBXuG3SQueFIY8kE8EHPUYxjnswnFWFxNaNFwcb/AHXOLF8J4vC0ZVlNStulvY+pdwA60A5FRjAbGfwr+V09elfbHxAgGa/qnBzX8rI4PSlPTGKAP6pScUA5GRX8rXbFf1Sr0oA/lY61/VPnrSHp1r+VwnNADcV/VMDmmkc9+KcOnrQB/KwBk0YwaUDnp+df1SD15oAcOlLX8rPXsKTPtQB/VPRRRQAUUUUAFFFFACEZoAApaKAP5WB161/VIvJ704jIoAA6UAHev5WK/qn71/KxQB/VOenrTR6enenEZr+VkmgAPFf1TYAr+Vjrmv6qKAP5VxyetOxxnNNBxX9U4GKAP5WwM96/qjHTpS96/lY60Afon/wRPAPx88csQMjwwwB/7eoP8K+r9fP/ABUuu++p3f8A6PevlD/gid/yXvx1/wBiyf8A0qgr6t8QnHibXv8AsJ3f/o96/PuMf93pev6H6JwX/vVX/D+pSJpu78KaWrqvh9oVnqV5d6jqoLaRpcXn3CD/AJaH+FPxNfmGHoyxFSNOPX7vU/UsTiI4WlKrLp+L6L5kWgfD/VdfszffudP00db29fy4/wAD3/Cr/wDwr/SWARPGekmc9FYOF/76xWF4s8Y33i29825byraPiC0j4jhXsAP61gFuMds5xXdKrhKL5YUufzba+5I8+FHHVlz1KvJfZJJ29W9zovEvgjVfC0cc91EktnL/AKu8t3EkL/Rh/WucLV3Hwv8AEB/tiPw9fE3Gi6o32eW3c5Cs33XX0INO1j4M67Zz3a2L2mr/AGdiGjtLhWlUA906g1c8D7emsRhItx2a3szOnmH1aq8NjppS0aeya/RnBFqu+G2/4qrw/wD9hSz/APR6VnzK8MrRyKUdCQyMMEHpjHarnho/8VX4e/7Ctn/6PSuLCJxxNNP+ZfmehjGnhajW3K/yPmj/AILX/wDJevAp/wCpZH/pVPX7Ijp0r8bP+C2Bx8e/AmOP+KYH/pVPX52E5Jr+i1sfzaf1TN06flX8reO/6U0HBoyfWmB/VKfT1704dPSv5WQa/qmAxQB/Kxml3E0lFADhyM8V/VIvQcY+tfysgkUE5NAH9U5HHSmg84ApxGa/lZzQB/VITz3+tfytkc9a/qmwCKAMCgBaKKKACiiigAooooAKKQnFAINAATiv5WcV/VMeR1puOevX0oAdnpX8rHSng4r+qMdOtAH8rPWv6p89aQ9OtfyuE8UANxX9UwOabtzzTgMCgBaQ9KM0E0AfysHrRQetFAH6J/8ABE7/AJL346/7Fk/+lUFfVfiM/wDFTa9/2E7z/wBHvXyr/wAETxj49+Oc9/DB/wDSqCvqfxIf+Kn17/sJ3f8A6Pevz3jH/d6XqfonBf8AvVX/AA/qafgnw1D4k1Kb7XMbfTrOBrm6lX7yovYe5JFdTbfEPwjZafeaJF4aul0m7ZTNOLv98+3oSMY79M96xPhpe2jXGsaRd3CWi6rZtbRzycKsmQVyewJGKy9X+HniTRnKz6RdOo6SwxGRCPXK5r4zDzqYfDxq4aCk3dSdr/LyVj7LEwo4rFTpYuo0o2cVflXe/m7noN98PPB0fiGLw1BLqo1S7iEsN0xUxoWXKggdfr7147dRtbXMsL43RuUJXpkHBrurf4g+MbDTI7JLd/Mij8mK7ezJuI0/uhyMgVz2g+A/EHiW/W2s9MuSznmWWNlRPcsRijGxp4pxjhaTTvta2j6efqPL5VcIpyxlZOPdyv8APy6aHo3gnw34Z8M+IPC0OoLe3Ou3qR3cTpgQRlgSoI6nGOa8013U9R0vxpqd2LloNRjvJd0sDEYYOc4PpXo3irxrqvhSOw0Hw/btd/2Zb/Z21WS0LyFz94RsR8qjpXmmmeD/ABB4kv8AyrbTLueaVstI8TBcnqWY8CurH+7GGGwsWmn0XWyW/X1OLLfelPF4ya5ZK2r829vsq3Q6L4oqmp6f4b8SeWsdxqts4uQgwGljIBbHuGH5Vx/hlifFnh7n/mK2f/pRHXUfFG+t7WLQ/DdrOlymi27RzSxn5Wmcgvj2GAPzrlPC5P8Awl3h3/sK2f8A6UJXFW5XmMbb3jf10v8AielhlJZVO+1pW9Nbfgfep/5CKf8AXMfzNXqpH/kIp1/1Y/mau1+7o/AxCcDJoBzQ3Sv5WieMYzTA/ql71/Kx0p6njpX9UY6daAP5Wa/qnPev5WMV/VNnNAH8rXrX9U3WmkH/APVX8rZPPSgBKB1r+qegjigAHSlr+Vnr2pPwoA/qnooooAKKKKACiiigBjHnHt1r+Vs9etf1TEA9aAMCgD+VgcnrTscZzTQcV/VOBigD+VrOO9J+Nf1T0UAfysDk9fzr+qTvX8rQODRnJoA/qm3YpQSQDijGa/lYJyaADNKOtJQOtADiAeaaRg1/VPjNfysE5oA/qhI/f/8AAT/SvhXxK3/FU6/7anef+j3r7qP+v/4Cf6V8I+Jmz4q8QD/qJ3n/AKUSV+fcY/wKXr+h+h8F/wC81f8AD+pFNp1xALR5FVFuhujZmwCNxH4cg1r2XjPxP4aLW1pqt5CkbGPaspdMg4wOox9Kc+paTd2WjtLdzQXNhEVaJbfcrnzGcYbcMZz6V0qfFSxj8QvORcvpvlkLb4GN/wBo8zdjOM7c89a+EoUqUNVW5b22f3n3WJrVqnuvD89r7rz0tffQw/8AhbvjJgD/AG1cEA9do/w+tA+L3jVQSus3QHQ4A/wq5pXjPRdBjgjje6u0RHjbMSoNzybvNGSfmQdPU1mxeLre30VLJL664SUONrfvGJJXnfgDpnjua6/aVFa+Kd/mcip03e2DW/ZffsPPxc8altg1m6LHou0Z9+1VNT+JHjDV7d7a51e+eJhhkX5Mj8BW/pfxK0qy8QW928UxtoZbmTKpmXDquwZJ5OQc59BWlcfGTSZbiV1hvEEpX5iq5U7QCx5PucVumpx97Fv8f8zF81OS5MCvXTf7jyBkcZJVj6kg/wCfX8qveFznxf4d/wCwrZf+lCV3mqfErR7nwtf2MMU8dzcqycgbSNxYHjoctz14rgPCpx4v8OZ6/wBq2X/o+OvLjRp0cVS9nPmu0/xR6zxFWvg63tafJZP8j77fjUEx/wA8x/OroOQDX41/8FsT/wAX78Cf9iyP/Sqev2UAwK/fj+fQPT1poPOMU4jNfys5oA/qkJ56V/K2evWv6psAigDAoAQ8Dp+Vfytt0zTQcGgkmgABIooooA/qnoJ4r+VigdaAHY4zx1r+qUDjpRjIoAwMCgBaKKKACiiigAooooAKKKKAP5V+tf1T5oIJHWv5Wsg0Af1S9aWmrS5oAWkPSv5Wc+1L36UAJiv6pgciv5Wt2KQsCelACV/VOe9fysYJr+qbNAH8rOCTQRg04dO3Nf1SDgdfzoAiP+u/4Ca+DfE5x4r8Qdv+Jpef+lElfd88nkujOcKeCa+UvjL8HNa0LxRqGq6Vp9xqek38zXP+iIZJIXY5dWQckbiSCAetfE8U4SricLB0o35X+B9vwni6OFxc1Wly8ytfpe55SxpjMK0D4Z17n/intaz/ANgyf/4imnwvrx6eHda/8Flx/wDEV+VfU8Qv+XcvuZ+ufXcL/wA/Y/ejNJppNaf/AAi+v/8AQu63/wCCyf8A+Iph8LeIM/8AIu61/wCCu4/+Io+qYj/n3L7mL67hf+fsfvRmFqaT3rTPhXX/APoXNb/8Fdx/8RTf+EU8Qf8AQua3/wCCu4/+Io+qYj/n2/uYvruF/wCfsfvRmFvyrS8Kn/isPDn/AGFrP/0ojoPhXxBj/kXNb/8ABXcf/EV6r8EfghreoeKLDW9asJtM0uxkFwiXK7ZJpF5QBDyADgknHSvRy7LsTVxVNKm9GnqjzMyzLCUsJUbqJ3TWjXY+IP8Agth83x88CY5/4pkf+lU9fsoOlZNlcJfXsjxkPEo2Kw6H1r+W8tk9K/ej8BP6p6K/lY/ClxjtQB/VNRX8rP4Ckz7UAf1TE4GTRnIoJ461/K12xxxQAmK/qmBzTSOe/FOHT1oAWv5V+uK/qnJxX8rI60AJiv6p+tNPOK/lbJ56UAf1T0UUUAFFFFABRRRQAUUUUAISQM4zX8rJGBmkBwaCSaADNGaKKAFA561/VGCTT+tfysE0AO25pCoB60ZPWv6pgMCgAIz2pMY6V/KzQOtAH9UpPPev5Wz161/VNgEUAYFAH8rK5JFfV/wG/wCCl3xn+AugWug2moWPinQrRPKtbHxDE8/2dAqqqJIjq4VQuAu7Az0xjHyeOK/qmMak8qD9aAPxs/4fX/FEf8yL4P8A++br/wCPUo/4LY/FL/oRfB/5XX/x6v2Q+zxf880/75FH2eL/AJ5p/wB8ilYDz4+MPFAH/IPsfxV//iqX/hMPFGONPsTj1V//AIqv5m81/VGbeLJPlqT7iiwH44/8PsPikOvgXwf/AN83X/x6v1PPi7xQDj+z7Hj/AGX/APiq/mbyQeOKM0WA/pkHi3xQ3BsLEf8AAX/+Kr8S/j1/wUt+M/x68PXOgXeo2PhbQbuPyrux8PQvB9oQhlZHkd3cowbDLuwcdOtfvp9ni/55J/3yKXy1HRQKAKWmWYsoVQDt+Vfyzt1NKSc0hOTk0wP6p8A1/Kzmv6p6/lX9KAP6pse5r+VknNf1TjtX8rFABmlBJpKB1oAeADX9Ui9OlGOlfysdaAP6p26HjNNBr+VoHBr+qfA6dqAP5Wxzmv6ox06UuK/lY60Af1UUUUUAFFFFABRRRQAnev5WK/qn71/KxQB/VOTgZNGcihulfytZ7YoATFf1TA5puO+acOB1oA/lYAzX9U2c5r+VkcHpTs8dPzoAT1r+qbrTdue9fytkj0oA/qnr+Vj0r+qev5WM4oA/qmHSlr+Vnr0GaT8KAEAzX9U+c1/KwDg04EHigBp60Up60mKAADNf1Tg5r+VgdaceBjFAH9U1FfysfhR+FACAZNGMGlA56fnX9UgGeeaAHDpS1/Kz17Un4UAf1T1/Kx6V/VPX8rAoA/qmHSlr+Vg/TNH4UAf1T0h6UtIRmgD+Vn1r+qbrTWBzX8rZ69KAP6p6/lX7V/VOTiv5WcUAIBmv6pwciv5WlyBxSE8nigD+qeiiigAooooAKKKKAE71/KxX9U/ev5WKAP6pz09aaD1H604jNfysk0ADdaTNHWigD+qfHsKMV/KxRQB/VMSQcV/KyRg0A4oJyaAP6qK/lX7V/VRX8q/agByjjPv0r+qRenT86/lZBIoJyaAClXrSUdKAP6pc4P1704cjpX8rINf1TAYoA/lZA561/VIpyad1r+Vg0Af1TE4OMUo5HSv5WAa/qnAxQAEZ7UmMDiv5WaKAHY79s9K/qkXp0/Ov5Wcn1oJyaAP6pySBnGa/laxgA00HBoySaAP6picfjQOQDilxnFfysE5NAH9U9FfysUUAf1TkZ7UAY7V/KxRQB/VOenrTR6enenEZr+VkmgAPFf1TYAr+Vjrmv6qKACiiigAooooAKKKKAEJA60A5FIy5PXtX8rWR6UAf1T0V/Kx+FH4UAf1T0V/Kx+FH4UAf1T0V/Kx+FL0PIxQB/VLkde1fysEYNf1Tbc0oBAAzQAdK/lZ9KAeelf1Rjg0APHSlpBS0AITgV/KzjGKAcHpSk5/CgD+qXOMV/KwRg1/VNjdilAIAGaAAnAr+VgjFKGAPSgncKAEooxRigAo60UoGDQAAV/VMDmmkdD+lOHT1oA/lY61/VP3oIJHWv5WicjpQB/VKTiv5WCMU4emKaetAH9U5OBk0ZFDdK/layMfTvQB/VL1xX8rFf1TLX8rNAH9U5OBRkEcV/KyOvSv6pFHU+3SgD+VvGc1/VMDkV/KyGxmgsCelAH9U9FFFABRRRQAUUUUAJ3r+Viv6p+9fysUAf1TngdKQHJxilIzX8rBNAH9U+PYUY9hX8rFFAH9U+Aa/lZzX9U9fyr+lAH9UxbGKUEkA4oxnFfysE5NAH9Ux4HT8q/lbPTtzTQcGjJJoA/qmztxSgkgHFGM4r+VgnJoA/qmPAJxSZzX8rQODX9U+MUAN3EHH604HIr+VnNf1TAYoA/lZx70Ae9f1T0h6UAIP85pcewr+Vg9aKAAdf8a/qlB7c1/K0Dg0ZyaAHgZ71/VIvTpRjpX8rHWgD+qckgdK/laKgd/zpvSv6p8daAGk89+a/laPX/CjODQTk0Af1Tnmk21/KzRQB/VMSQcV/KyRg0A4oJyaAP6pyOOlNBxkYpxGa/lZzQAEe9GPev6ph0paACiiigAooooAKKKKAE71/KxX9U/ev5WKAP6qK/lX7V/VOTiv5WSKAEooxRigD+qiv5V/Sv6qK/lX9KAP6px2r+Viv6ps4xX8rJBFAH9U5OBX8rOMYoDAHpRnOKAP6psgDmgHIpp5Pfiv5Wz16UAf1TE4GTQDmg8jrX8rR6dKAP6pqK/lYHPajPtQB/VMTiv5WSK/qmJ4600DqQe1AH8rXSilIyeKTFAABk1/VODmkPIIzQBtNAC96/lYr+qcmv5WCCKAP6pycDJozkUEZFfytZ46UANPWiv6ph/nNLn3FAATiv5WSK/qmPT0po9fXtQB/K10zX9VFfysGv6p6AEJwK/lZxjFAPPSlJ9e1AH9UuQBzQDkU0jJH0r+VvI9KAP6p6KKKACiiigAooooATvX8rFf1T96/lYoA/qnPNAGK/lYooA/qnx7CjHsK/lYooA/qnJIGcZr+VkjGD70gODRkk0Af1T4yKAAKB0paAP5WMe9AAHev6p6Q9KAP5W+3av6oxyOn51/K1kg0hOTQAZr+qfHNfysV/VP3oACPwr+VgnNf1T96/lYoAMkV/VNjGa/lZr+qc96AP5Wc1/VNgCv5WPWv6qKAP5WAMnrSkY/Gv6pSMiv5Wc5xQB/VIeMZpV6Dj86XGcV/KwTk0Af1TkkDOM1/KyRgZpAcGgkmgBQNwoIwetIDiv6pwMCgBG6HjP0r+VvHf8ASmg4NLkk0AKQMZr+qUHIoxkUAYGBQB/KwOv+Nf1Sjk45+tfytA4NBOaAP6piSDiv5WSMGgHFBOTQB/VRRRRQAUUUUAFFFFABRRRQAUUUUAFFFFABRRRQAUUUUAFFFFABRRRQAUUUUAFFFFABRRRQAUUUUAFFFFABRRRQAUUUUAFFFFABRRRQAUUUUAFFFFABRRRQAUUUUAFFFFABRRRQAUUUUAFFFFABRRRQAUUUUAFFFFABRRRQAUUUUAFFFFABRRRQAUUUUAFFFFABRRRQAUUUUAFFFFABRRRQAUUUUAFFFFABRRRQAUUUUAFFFFABRRRQB//Z;" vertex="1" parent="1">
          <mxGeometry x="185" y="185" width="90" height="90" as="geometry" />
        </mxCell>
      </root>
    </mxGraphModel>
  </diagram>
</mxfile>
